<mxfile host="65bd71144e">
    <diagram id="vu5aGmH0o27bVY2iEsoV" name="Page-1">
        <mxGraphModel dx="509" dy="274" grid="1" gridSize="10" guides="1" tooltips="1" connect="1" arrows="1" fold="1" page="1" pageScale="1" pageWidth="850" pageHeight="1100" math="0" shadow="0">
            <root>
                <mxCell id="0"/>
                <mxCell id="1" parent="0"/>
                <mxCell id="2" value="" style="rounded=0;whiteSpace=wrap;html=1;" vertex="1" parent="1">
                    <mxGeometry x="40" y="40" width="280" height="240" as="geometry"/>
                </mxCell>
                <mxCell id="3" value="Server Address" style="rounded=1;whiteSpace=wrap;html=1;labelPosition=left;verticalLabelPosition=middle;align=right;verticalAlign=middle;spacing=8;" vertex="1" parent="1">
                    <mxGeometry x="160" y="80" width="120" height="30" as="geometry"/>
                </mxCell>
                <mxCell id="4" value="Name" style="rounded=1;whiteSpace=wrap;html=1;labelPosition=left;verticalLabelPosition=middle;align=right;verticalAlign=middle;spacing=8;" vertex="1" parent="1">
                    <mxGeometry x="160" y="190" width="120" height="30" as="geometry"/>
                </mxCell>
                <mxCell id="5" value="Server Port" style="rounded=1;whiteSpace=wrap;html=1;labelPosition=left;verticalLabelPosition=middle;align=right;verticalAlign=middle;spacing=8;" vertex="1" parent="1">
                    <mxGeometry x="160" y="120" width="120" height="30" as="geometry"/>
                </mxCell>
                <mxCell id="7" value="Start Server" style="rounded=1;html=1;labelPosition=left;verticalLabelPosition=middle;align=right;verticalAlign=middle;spacing=8;" vertex="1" parent="1">
                    <mxGeometry x="250" y="165" width="10" height="10" as="geometry"/>
                </mxCell>
                <mxCell id="10" value="Start ChatApp" style="rounded=1;whiteSpace=wrap;html=1;" vertex="1" parent="1">
                    <mxGeometry x="160" y="230" width="120" height="30" as="geometry"/>
                </mxCell>
            </root>
        </mxGraphModel>
    </diagram>
</mxfile>